<svg width="247" height="33" viewBox="0 0 247 33" fill="none" xmlns="http://www.w3.org/2000/svg">
<path d="M16.1455 2.59961C16.3193 2.59969 16.5011 2.64684 16.6543 2.76074C16.8127 2.87854 16.9165 3.05142 16.9482 3.25391C16.9597 3.32717 16.9737 3.55894 16.9893 3.86035C17.0056 4.17887 17.0251 4.61292 17.0479 5.12305C17.0933 6.14374 17.1498 7.4727 17.2051 8.79785C17.2604 10.1233 17.3152 11.4456 17.3594 12.4541C17.3815 12.9583 17.4007 13.3838 17.416 13.6914C17.4231 13.8342 17.4284 13.9511 17.4336 14.0381C17.4927 13.984 17.572 13.9115 17.668 13.8223C17.8767 13.6282 18.1645 13.3591 18.5049 13.0391C19.1857 12.3989 20.0752 11.5576 20.9629 10.7188C21.8503 9.88021 22.7358 9.04371 23.4062 8.41113C23.7415 8.09485 24.0237 7.82889 24.2256 7.63965C24.3264 7.54517 24.4076 7.46893 24.4658 7.41504C24.4948 7.38823 24.519 7.36604 24.5371 7.34961C24.5459 7.3416 24.5748 7.31548 24.5986 7.29785L24.7119 7.22754C24.8281 7.16865 24.9513 7.14153 25.0635 7.1377C25.1844 7.13361 25.3389 7.1564 25.4727 7.24219L25.5283 7.28223L25.5986 7.34961C25.6669 7.42339 25.7269 7.51733 25.7627 7.62598C25.8135 7.78045 25.819 7.98147 25.7031 8.17188C25.6817 8.20694 25.6491 8.24505 25.6426 8.25293C25.6255 8.2736 25.603 8.30074 25.5762 8.33203C25.5222 8.39494 25.4462 8.48194 25.3525 8.58887C25.1648 8.8031 24.9017 9.1011 24.5889 9.4541C23.963 10.1604 23.1355 11.0896 22.3086 12.0186C21.4814 12.9478 20.6546 13.8768 20.0283 14.582C19.7153 14.9345 19.4527 15.231 19.2656 15.4434C19.2181 15.4973 19.1748 15.5455 19.1377 15.5879C19.2034 15.5916 19.2799 15.596 19.3662 15.6006C19.6744 15.617 20.1061 15.6393 20.6201 15.665C21.6482 15.7165 23.0049 15.7826 24.3643 15.8496C25.7235 15.9166 27.0858 15.9843 28.123 16.0381C28.6413 16.065 29.0793 16.0882 29.3955 16.1064C29.5535 16.1156 29.6828 16.1235 29.7764 16.1299C29.8511 16.135 29.9415 16.1412 29.9883 16.1504C30.1744 16.187 30.3215 16.2999 30.417 16.4238C30.513 16.5485 30.5837 16.7199 30.5723 16.9111C30.5549 17.1988 30.3589 17.4925 30.0254 17.5654C29.988 17.5736 29.9429 17.5772 29.9219 17.5791C29.8903 17.582 29.8503 17.5847 29.8037 17.5879C29.7096 17.5944 29.5807 17.6027 29.4238 17.6113C29.1097 17.6287 28.6762 17.6506 28.1641 17.6748C27.1392 17.7233 25.796 17.7825 24.4561 17.8398C22.0164 17.9443 19.5655 18.0422 19.085 18.0586C19.4643 18.4709 20.4917 19.5925 21.5117 20.7139C22.1479 21.4133 22.7876 22.1189 23.2773 22.6641C23.5221 22.9365 23.7309 23.17 23.8828 23.3428C23.9586 23.429 24.0215 23.5014 24.0684 23.5566C24.1053 23.6002 24.1552 23.66 24.1826 23.7031C24.2775 23.8528 24.2988 24.0285 24.2832 24.1729C24.267 24.3222 24.2048 24.4967 24.0664 24.6328C23.9137 24.7828 23.7112 24.8283 23.5498 24.8301C23.3794 24.8319 23.1986 24.7876 23.0361 24.6963C22.9966 24.6741 22.9584 24.6427 22.9521 24.6377C22.9336 24.6228 22.911 24.6034 22.8857 24.582C22.8348 24.5389 22.7657 24.4798 22.6826 24.4072C22.5157 24.2615 22.2863 24.058 22.0156 23.8174C21.474 23.3359 20.765 22.7017 20.0596 22.0684C18.9346 21.0584 17.8046 20.0381 17.3809 19.6543C17.3581 20.4086 17.2932 22.4658 17.2227 24.5225C17.1789 25.7976 17.134 27.078 17.0957 28.0576C17.0766 28.5473 17.0584 28.9631 17.0439 29.2656C17.0367 29.4166 17.0301 29.541 17.0244 29.6328C17.0198 29.7067 17.0145 29.7984 17.0039 29.8506C16.9547 30.0919 16.8011 30.2482 16.624 30.3271C16.4725 30.3946 16.3174 30.4004 16.2324 30.4004C16.1419 30.4004 15.9904 30.393 15.8408 30.3232C15.6708 30.2439 15.5321 30.0967 15.4697 29.8818C15.4557 29.8335 15.4505 29.777 15.4492 29.7646C15.4462 29.7348 15.4428 29.6967 15.4395 29.6533C15.4328 29.5659 15.4248 29.4457 15.416 29.2988C15.3984 29.0045 15.3762 28.5957 15.3516 28.1123C15.3023 27.1453 15.2419 25.8742 15.1836 24.6064C15.0847 22.456 14.9918 20.294 14.9658 19.6562C14.9115 19.7052 14.8413 19.7689 14.7568 19.8457C14.5478 20.0359 14.2537 20.3054 13.9023 20.627C13.1996 21.2702 12.2697 22.1232 11.3398 22.9766C10.4101 23.8298 9.47997 24.6831 8.77734 25.3271C8.42617 25.6491 8.13145 25.919 7.92188 26.1104C7.81714 26.206 7.73293 26.2824 7.67383 26.3359C7.6446 26.3624 7.62094 26.3839 7.60352 26.3994C7.59697 26.4053 7.56786 26.432 7.5459 26.4482C7.39375 26.5605 7.20781 26.5928 7.05566 26.5869C6.89787 26.5807 6.71629 26.5316 6.56445 26.4121C6.38815 26.2732 6.31901 26.0717 6.30273 25.9131C6.28688 25.7582 6.31261 25.5579 6.43555 25.3965L6.54688 25.2695C6.60103 25.2095 6.67814 25.1251 6.77344 25.0205C6.96411 24.8113 7.23139 24.5187 7.5498 24.1709L12.1924 19.1064C12.5109 18.7586 12.7777 18.4664 12.9678 18.2578C13.0423 18.176 13.1043 18.1068 13.1533 18.0527C12.4318 18.0248 10.0677 17.9286 7.72949 17.832C6.33968 17.7746 4.9518 17.7178 3.90918 17.6748C2.85637 17.6313 2.17483 17.6035 2.1748 17.6035C1.91145 17.6034 1.76273 17.406 1.70703 17.3086C1.63684 17.1857 1.59979 17.037 1.59961 16.8877V16.8867C1.59987 16.6817 1.65833 16.5066 1.75293 16.373C1.7992 16.3078 1.85642 16.2501 1.9209 16.2061C1.97237 16.1709 2.06497 16.1199 2.18457 16.1152L2.18652 16.1143C2.18785 16.1142 2.18981 16.1144 2.19238 16.1143C2.19764 16.114 2.20553 16.1137 2.21582 16.1133C2.23669 16.1124 2.2682 16.1112 2.30859 16.1094C2.38933 16.1058 2.50764 16.1004 2.6582 16.0938C2.95988 16.0804 3.39163 16.0619 3.90918 16.0391C4.94423 15.9933 6.32538 15.9321 7.70898 15.8711C10.1049 15.7655 12.5307 15.6589 13.1602 15.6328C13.1264 15.5939 13.0852 15.5469 13.0371 15.4922C12.8945 15.33 12.6944 15.105 12.4561 14.8379C11.9797 14.304 11.3512 13.6039 10.7217 12.9023C10.0923 12.2009 9.46157 11.4976 8.98145 10.96C8.74147 10.6912 8.53821 10.4632 8.3916 10.2969C8.31845 10.2139 8.25862 10.1446 8.21484 10.0938C8.1821 10.0557 8.13456 10.0012 8.11035 9.96484C7.96634 9.74847 7.97995 9.512 8.03418 9.34375C8.08631 9.18219 8.19056 9.03088 8.32227 8.93359L8.41895 8.87305C8.65449 8.74736 8.9646 8.73499 9.24805 8.9209C9.28731 8.94665 9.34427 8.99577 9.38184 9.02832C9.43268 9.07238 9.50102 9.13204 9.58301 9.20508C9.74746 9.35158 9.97235 9.55444 10.2373 9.79395C10.7672 10.273 11.4604 10.9035 12.1562 11.5342C12.8527 12.1654 13.5519 12.7973 14.0947 13.2822C14.3663 13.5248 14.5978 13.73 14.7695 13.8789C14.8469 13.946 14.9115 13.9999 14.9609 14.041C14.9733 13.4879 15.0317 11.1567 15.0996 8.81348C15.1379 7.49353 15.1789 6.16513 15.2158 5.1416C15.2343 4.63001 15.2519 4.19227 15.2676 3.87012C15.2754 3.70966 15.283 3.5758 15.29 3.47461C15.296 3.38845 15.3033 3.29058 15.3164 3.23047C15.3652 3.00654 15.5121 2.84899 15.6543 2.75391C15.7959 2.65927 15.9714 2.59961 16.1455 2.59961Z" fill="white" stroke="white" stroke-width="0.8"/>
<circle cx="26" cy="27" r="1.5" fill="white"/>
<circle cx="6" cy="7" r="1.5" fill="white"/>
<path d="M41.517 25V7.54545H53.2784V10.5881H45.2074V14.7472H52.6733V17.7898H45.2074V21.9574H53.3125V25H41.517ZM64.7947 29.9091V22.9034H64.6839C64.5135 23.267 64.272 23.6278 63.9595 23.9858C63.6527 24.3381 63.2521 24.6307 62.7578 24.8636C62.2692 25.0966 61.6726 25.2131 60.968 25.2131C59.9737 25.2131 59.0732 24.9574 58.2663 24.446C57.4652 23.929 56.8288 23.1705 56.3572 22.1705C55.8913 21.1648 55.6584 19.9318 55.6584 18.4716C55.6584 16.9716 55.8999 15.7244 56.3828 14.7301C56.8658 13.7301 57.5078 12.983 58.3089 12.4886C59.1158 11.9886 59.9993 11.7386 60.9595 11.7386C61.6925 11.7386 62.3033 11.8636 62.7919 12.1136C63.2862 12.358 63.6839 12.6648 63.9851 13.0341C64.2919 13.3977 64.5249 13.7557 64.6839 14.108H64.8374V11.9091H68.4169V29.9091H64.7947ZM62.1186 22.3239C62.7038 22.3239 63.1982 22.1648 63.6016 21.8466C64.0107 21.5227 64.3232 21.071 64.5391 20.4915C64.7607 19.9119 64.8714 19.233 64.8714 18.4545C64.8714 17.6761 64.7635 17 64.5476 16.4261C64.3317 15.8523 64.0192 15.4091 63.6101 15.0966C63.201 14.7841 62.7038 14.6278 62.1186 14.6278C61.522 14.6278 61.0192 14.7898 60.6101 15.1136C60.201 15.4375 59.8913 15.8864 59.6811 16.4602C59.4709 17.0341 59.3658 17.6989 59.3658 18.4545C59.3658 19.2159 59.4709 19.8892 59.6811 20.4744C59.897 21.054 60.2067 21.5085 60.6101 21.8381C61.0192 22.1619 61.522 22.3239 62.1186 22.3239ZM79.7266 19.4261V11.9091H83.3572V25H79.8714V22.6222H79.7351C79.4396 23.3892 78.9482 24.0057 78.2607 24.4716C77.5788 24.9375 76.7464 25.1705 75.7635 25.1705C74.8885 25.1705 74.1186 24.9716 73.4538 24.5739C72.7891 24.1761 72.2692 23.6108 71.8942 22.8778C71.5249 22.1449 71.3374 21.267 71.3317 20.2443V11.9091H74.9624V19.5966C74.968 20.3693 75.1754 20.9801 75.5845 21.429C75.9936 21.8778 76.5419 22.1023 77.2294 22.1023C77.6669 22.1023 78.076 22.0028 78.4567 21.804C78.8374 21.5994 79.1442 21.2983 79.3771 20.9006C79.6158 20.5028 79.7322 20.0114 79.7266 19.4261ZM89.9943 25.2472C89.1591 25.2472 88.4148 25.1023 87.7614 24.8125C87.108 24.517 86.5909 24.0824 86.2102 23.5085C85.8352 22.929 85.6477 22.2074 85.6477 21.3438C85.6477 20.6165 85.7813 20.0057 86.0483 19.5114C86.3153 19.017 86.679 18.6193 87.1392 18.3182C87.5994 18.017 88.1222 17.7898 88.7074 17.6364C89.2983 17.483 89.9176 17.375 90.5653 17.3125C91.3267 17.233 91.9403 17.1591 92.4062 17.0909C92.8722 17.017 93.2102 16.9091 93.4205 16.767C93.6307 16.625 93.7358 16.4148 93.7358 16.1364V16.0852C93.7358 15.5455 93.5653 15.1278 93.2244 14.8324C92.8892 14.5369 92.4119 14.3892 91.7926 14.3892C91.1392 14.3892 90.6193 14.5341 90.233 14.8239C89.8466 15.108 89.5909 15.4659 89.4659 15.8977L86.108 15.625C86.2784 14.8295 86.6136 14.142 87.1136 13.5625C87.6136 12.9773 88.2585 12.5284 89.0483 12.2159C89.8438 11.8977 90.7642 11.7386 91.8097 11.7386C92.5369 11.7386 93.233 11.8239 93.8977 11.9943C94.5682 12.1648 95.1619 12.429 95.679 12.7869C96.2017 13.1449 96.6136 13.6051 96.9148 14.1676C97.2159 14.7244 97.3665 15.392 97.3665 16.1705V25H93.9233V23.1847H93.821C93.6108 23.5938 93.3295 23.9545 92.9773 24.267C92.625 24.5739 92.2017 24.8153 91.7074 24.9915C91.2131 25.1619 90.642 25.2472 89.9943 25.2472ZM91.0341 22.7415C91.5682 22.7415 92.0398 22.6364 92.4489 22.4261C92.858 22.2102 93.179 21.9205 93.4119 21.5568C93.6449 21.1932 93.7614 20.7812 93.7614 20.321V18.9318C93.6477 19.0057 93.4915 19.0739 93.2926 19.1364C93.0994 19.1932 92.8807 19.2472 92.6364 19.2983C92.392 19.3437 92.1477 19.3864 91.9034 19.4261C91.6591 19.4602 91.4375 19.4915 91.2386 19.5199C90.8125 19.5824 90.4403 19.6818 90.1222 19.8182C89.804 19.9545 89.5568 20.1392 89.3807 20.3722C89.2045 20.5994 89.1165 20.8835 89.1165 21.2244C89.1165 21.7188 89.2955 22.0966 89.6534 22.358C90.017 22.6136 90.4773 22.7415 91.0341 22.7415ZM107.146 11.9091V14.6364H99.2628V11.9091H107.146ZM101.053 8.77273H104.683V20.9773C104.683 21.3125 104.734 21.5739 104.837 21.7614C104.939 21.9432 105.081 22.071 105.263 22.1449C105.45 22.2187 105.666 22.2557 105.911 22.2557C106.081 22.2557 106.251 22.2415 106.422 22.2131C106.592 22.179 106.723 22.1534 106.814 22.1364L107.385 24.8381C107.203 24.8949 106.947 24.9602 106.618 25.0341C106.288 25.1136 105.888 25.1619 105.416 25.179C104.541 25.2131 103.774 25.0966 103.115 24.8295C102.462 24.5625 101.953 24.1477 101.589 23.5852C101.226 23.0227 101.047 22.3125 101.053 21.4545V8.77273ZM109.511 25V11.9091H113.142V25H109.511ZM111.335 10.2216C110.795 10.2216 110.332 10.0426 109.946 9.68466C109.565 9.32102 109.375 8.88636 109.375 8.38068C109.375 7.88068 109.565 7.4517 109.946 7.09375C110.332 6.73011 110.795 6.54829 111.335 6.54829C111.875 6.54829 112.335 6.73011 112.716 7.09375C113.102 7.4517 113.295 7.88068 113.295 8.38068C113.295 8.88636 113.102 9.32102 112.716 9.68466C112.335 10.0426 111.875 10.2216 111.335 10.2216ZM121.965 25.2557C120.641 25.2557 119.496 24.9744 118.531 24.4119C117.57 23.8437 116.829 23.054 116.306 22.0426C115.783 21.0256 115.522 19.8466 115.522 18.5057C115.522 17.1534 115.783 15.9716 116.306 14.9602C116.829 13.9432 117.57 13.1534 118.531 12.5909C119.496 12.0227 120.641 11.7386 121.965 11.7386C123.289 11.7386 124.431 12.0227 125.391 12.5909C126.357 13.1534 127.102 13.9432 127.624 14.9602C128.147 15.9716 128.408 17.1534 128.408 18.5057C128.408 19.8466 128.147 21.0256 127.624 22.0426C127.102 23.054 126.357 23.8437 125.391 24.4119C124.431 24.9744 123.289 25.2557 121.965 25.2557ZM121.982 22.4432C122.585 22.4432 123.087 22.2727 123.491 21.9318C123.894 21.5852 124.198 21.1136 124.403 20.517C124.613 19.9205 124.718 19.2415 124.718 18.4801C124.718 17.7188 124.613 17.0398 124.403 16.4432C124.198 15.8466 123.894 15.375 123.491 15.0284C123.087 14.6818 122.585 14.5085 121.982 14.5085C121.374 14.5085 120.863 14.6818 120.448 15.0284C120.039 15.375 119.729 15.8466 119.519 16.4432C119.315 17.0398 119.212 17.7188 119.212 18.4801C119.212 19.2415 119.315 19.9205 119.519 20.517C119.729 21.1136 120.039 21.5852 120.448 21.9318C120.863 22.2727 121.374 22.4432 121.982 22.4432ZM134.4 17.4318V25H130.769V11.9091H134.229V14.2188H134.383C134.673 13.4574 135.158 12.8551 135.84 12.4119C136.522 11.9631 137.349 11.7386 138.32 11.7386C139.229 11.7386 140.022 11.9375 140.698 12.3352C141.374 12.733 141.9 13.3011 142.275 14.0398C142.65 14.7727 142.837 15.6477 142.837 16.6648V25H139.207V17.3125C139.212 16.5114 139.008 15.8864 138.593 15.4375C138.178 14.983 137.607 14.7557 136.88 14.7557C136.391 14.7557 135.96 14.8608 135.585 15.071C135.215 15.2812 134.925 15.5881 134.715 15.9915C134.511 16.3892 134.406 16.8693 134.4 17.4318ZM151.322 25V7.54545H158.208C159.532 7.54545 160.66 7.7983 161.592 8.30398C162.523 8.80398 163.234 9.5 163.722 10.392C164.217 11.2784 164.464 12.3011 164.464 13.4602C164.464 14.6193 164.214 15.642 163.714 16.5284C163.214 17.4148 162.489 18.1051 161.54 18.5994C160.597 19.0937 159.455 19.3409 158.114 19.3409H153.725V16.3835H157.518C158.228 16.3835 158.813 16.2614 159.273 16.017C159.739 15.767 160.086 15.4233 160.313 14.9858C160.546 14.5426 160.663 14.0341 160.663 13.4602C160.663 12.8807 160.546 12.375 160.313 11.9432C160.086 11.5057 159.739 11.1676 159.273 10.929C158.808 10.6847 158.217 10.5625 157.501 10.5625H155.012V25H151.322ZM169.034 29.9091C168.574 29.9091 168.142 29.8722 167.739 29.7983C167.341 29.7301 167.011 29.642 166.75 29.5341L167.568 26.8239C167.994 26.9545 168.378 27.0256 168.719 27.0369C169.065 27.0483 169.364 26.9688 169.614 26.7983C169.869 26.6278 170.077 26.3381 170.236 25.929L170.449 25.375L165.753 11.9091H169.571L172.281 21.5227H172.418L175.153 11.9091H178.997L173.909 26.4148C173.665 27.1193 173.332 27.733 172.912 28.2557C172.497 28.7841 171.972 29.1903 171.335 29.4744C170.699 29.7642 169.932 29.9091 169.034 29.9091ZM180.855 25V11.9091H184.375V14.1932H184.511C184.75 13.3807 185.151 12.767 185.713 12.3523C186.276 11.9318 186.923 11.7216 187.656 11.7216C187.838 11.7216 188.034 11.733 188.244 11.7557C188.455 11.7784 188.639 11.8097 188.798 11.8494V15.071C188.628 15.0199 188.392 14.9744 188.091 14.9347C187.79 14.8949 187.514 14.875 187.264 14.875C186.73 14.875 186.253 14.9915 185.832 15.2244C185.418 15.4517 185.088 15.7699 184.844 16.179C184.605 16.5881 184.486 17.0597 184.486 17.5938V25H180.855ZM194.033 25.2472C193.198 25.2472 192.454 25.1023 191.8 24.8125C191.147 24.517 190.63 24.0824 190.249 23.5085C189.874 22.929 189.687 22.2074 189.687 21.3438C189.687 20.6165 189.82 20.0057 190.087 19.5114C190.354 19.017 190.718 18.6193 191.178 18.3182C191.638 18.017 192.161 17.7898 192.746 17.6364C193.337 17.483 193.957 17.375 194.604 17.3125C195.366 17.233 195.979 17.1591 196.445 17.0909C196.911 17.017 197.249 16.9091 197.46 16.767C197.67 16.625 197.775 16.4148 197.775 16.1364V16.0852C197.775 15.5455 197.604 15.1278 197.263 14.8324C196.928 14.5369 196.451 14.3892 195.832 14.3892C195.178 14.3892 194.658 14.5341 194.272 14.8239C193.886 15.108 193.63 15.4659 193.505 15.8977L190.147 15.625C190.317 14.8295 190.653 14.142 191.153 13.5625C191.653 12.9773 192.298 12.5284 193.087 12.2159C193.883 11.8977 194.803 11.7386 195.849 11.7386C196.576 11.7386 197.272 11.8239 197.937 11.9943C198.607 12.1648 199.201 12.429 199.718 12.7869C200.241 13.1449 200.653 13.6051 200.954 14.1676C201.255 14.7244 201.406 15.392 201.406 16.1705V25H197.962V23.1847H197.86C197.65 23.5938 197.369 23.9545 197.016 24.267C196.664 24.5739 196.241 24.8153 195.746 24.9915C195.252 25.1619 194.681 25.2472 194.033 25.2472ZM195.073 22.7415C195.607 22.7415 196.079 22.6364 196.488 22.4261C196.897 22.2102 197.218 21.9205 197.451 21.5568C197.684 21.1932 197.8 20.7812 197.8 20.321V18.9318C197.687 19.0057 197.531 19.0739 197.332 19.1364C197.138 19.1932 196.92 19.2472 196.675 19.2983C196.431 19.3437 196.187 19.3864 195.942 19.4261C195.698 19.4602 195.477 19.4915 195.278 19.5199C194.852 19.5824 194.479 19.6818 194.161 19.8182C193.843 19.9545 193.596 20.1392 193.42 20.3722C193.244 20.5994 193.156 20.8835 193.156 21.2244C193.156 21.7188 193.335 22.0966 193.692 22.358C194.056 22.6136 194.516 22.7415 195.073 22.7415ZM204.222 25V11.9091H207.683V14.2188H207.836C208.109 13.4517 208.563 12.8466 209.2 12.4034C209.836 11.9602 210.597 11.7386 211.484 11.7386C212.381 11.7386 213.146 11.9631 213.776 12.4119C214.407 12.8551 214.827 13.4574 215.038 14.2188H215.174C215.441 13.4688 215.924 12.8693 216.623 12.4205C217.327 11.9659 218.16 11.7386 219.12 11.7386C220.342 11.7386 221.333 12.1278 222.094 12.9062C222.862 13.679 223.245 14.7756 223.245 16.196V25H219.623V16.9119C219.623 16.1847 219.43 15.6392 219.043 15.2756C218.657 14.9119 218.174 14.7301 217.594 14.7301C216.935 14.7301 216.421 14.9403 216.052 15.3608C215.683 15.7756 215.498 16.3239 215.498 17.0057V25H211.978V16.8352C211.978 16.1932 211.793 15.6818 211.424 15.3011C211.06 14.9205 210.58 14.7301 209.984 14.7301C209.58 14.7301 209.217 14.8324 208.893 15.0369C208.575 15.2358 208.322 15.517 208.134 15.8807C207.947 16.2386 207.853 16.6591 207.853 17.142V25H204.222ZM226.113 25V11.9091H229.744V25H226.113ZM227.937 10.2216C227.397 10.2216 226.934 10.0426 226.548 9.68466C226.167 9.32102 225.977 8.88636 225.977 8.38068C225.977 7.88068 226.167 7.4517 226.548 7.09375C226.934 6.73011 227.397 6.54829 227.937 6.54829C228.477 6.54829 228.937 6.73011 229.317 7.09375C229.704 7.4517 229.897 7.88068 229.897 8.38068C229.897 8.88636 229.704 9.32102 229.317 9.68466C228.937 10.0426 228.477 10.2216 227.937 10.2216ZM237.476 25.2131C236.482 25.2131 235.581 24.9574 234.774 24.446C233.973 23.929 233.337 23.1705 232.865 22.1705C232.399 21.1648 232.166 19.9318 232.166 18.4716C232.166 16.9716 232.408 15.7244 232.891 14.7301C233.374 13.7301 234.016 12.983 234.817 12.4886C235.624 11.9886 236.507 11.7386 237.467 11.7386C238.2 11.7386 238.811 11.8636 239.3 12.1136C239.794 12.358 240.192 12.6648 240.493 13.0341C240.8 13.3977 241.033 13.7557 241.192 14.108H241.303V7.54545H244.925V25H241.345V22.9034H241.192C241.021 23.267 240.78 23.6278 240.467 23.9858C240.161 24.3381 239.76 24.6307 239.266 24.8636C238.777 25.0966 238.18 25.2131 237.476 25.2131ZM238.626 22.3239C239.212 22.3239 239.706 22.1648 240.109 21.8466C240.518 21.5227 240.831 21.071 241.047 20.4915C241.268 19.9119 241.379 19.233 241.379 18.4545C241.379 17.6761 241.271 17 241.055 16.4261C240.839 15.8523 240.527 15.4091 240.118 15.0966C239.709 14.7841 239.212 14.6278 238.626 14.6278C238.03 14.6278 237.527 14.7898 237.118 15.1136C236.709 15.4375 236.399 15.8864 236.189 16.4602C235.979 17.0341 235.874 17.6989 235.874 18.4545C235.874 19.2159 235.979 19.8892 236.189 20.4744C236.405 21.054 236.714 21.5085 237.118 21.8381C237.527 22.1619 238.03 22.3239 238.626 22.3239Z" fill="white"/>
</svg>
