<svg width="48" height="48" viewBox="0 0 48 48" fill="none" xmlns="http://www.w3.org/2000/svg">
<rect width="48" height="48" rx="24" fill="#24242F" fill-opacity="0.8"/>
<path d="M31.7984 34.6L13.3984 16.2L14.7984 14.8L33.1984 33.2L31.7984 34.6ZM25.9984 23.15L23.9984 21.15V15H29.9984V19H25.9984V23.15ZM21.9984 33C20.8984 33 19.9568 32.6083 19.1734 31.825C18.3901 31.0417 17.9984 30.1 17.9984 29C17.9984 27.9 18.3901 26.9583 19.1734 26.175C19.9568 25.3917 20.8984 25 21.9984 25C22.3818 25 22.7359 25.0458 23.0609 25.1375C23.3859 25.2292 23.6984 25.3667 23.9984 25.55V24L25.9984 26V29C25.9984 30.1 25.6068 31.0417 24.8234 31.825C24.0401 32.6083 23.0984 33 21.9984 33Z" fill="white"/>
</svg>
