<svg width="48" height="48" viewBox="0 0 48 48" fill="none" xmlns="http://www.w3.org/2000/svg">
<rect width="48" height="48" rx="24" fill="#24242F" fill-opacity="0.8"/>
<path fill-rule="evenodd" clip-rule="evenodd" d="M31.6412 15.0275C31.9444 14.9793 32.2549 14.9946 32.5512 15.0724C32.8475 15.1503 33.1225 15.2887 33.357 15.4782C33.5916 15.6677 33.78 15.9036 33.9093 16.1696C34.0387 16.4356 34.1057 16.7253 34.1058 17.0185V28.9525C34.1056 29.8414 33.798 30.7055 33.2306 31.4107C32.6633 32.1159 31.8679 32.6227 30.9678 32.8527C30.0678 33.0826 29.1134 33.0228 28.2526 32.6825C27.3918 32.3422 26.6728 31.7404 26.207 30.9704C25.7412 30.2005 25.5547 29.3054 25.6764 28.4241C25.7981 27.5427 26.2212 26.7243 26.8801 26.0957C27.539 25.4671 28.3968 25.0635 29.3206 24.9475C30.2444 24.8315 31.1825 25.0096 31.9894 25.4541V21.0571L21.4073 22.7401V29.9621C21.4073 30.0227 21.402 30.0812 21.3914 30.1378C21.4674 30.9142 21.2721 31.6927 20.8359 32.3522C20.3998 33.0116 19.7472 33.5149 18.98 33.7836C18.2128 34.0523 17.374 34.0713 16.5942 33.8377C15.8145 33.6041 15.1376 33.131 14.6691 32.4921C14.2005 31.8532 13.9666 31.0844 14.0038 30.3054C14.041 29.5265 14.3472 28.7811 14.8747 28.1855C15.4022 27.5899 16.1214 27.1775 16.9201 27.0125C17.7189 26.8475 18.5525 26.9393 19.2909 27.2734V18.7016C19.2908 18.2236 19.4685 17.7611 19.7923 17.3963C20.1161 17.0315 20.565 16.7882 21.0592 16.7096L31.6412 15.0275ZM21.4073 20.6936L31.9894 19.0105V17.0185L21.4073 18.7016V20.6936Z" fill="white"/>
</svg>
