<svg width="48" height="48" viewBox="0 0 48 48" fill="none" xmlns="http://www.w3.org/2000/svg">
<rect width="48" height="48" rx="24" fill="#24242F" fill-opacity="0.8"/>
<path d="M22 33C20.9 33 19.9583 32.6083 19.175 31.825C18.3917 31.0417 18 30.1 18 29C18 27.9 18.3917 26.9583 19.175 26.175C19.9583 25.3917 20.9 25 22 25C22.3833 25 22.7375 25.0458 23.0625 25.1375C23.3875 25.2292 23.7 25.3667 24 25.55V15H30V19H26V29C26 30.1 25.6083 31.0417 24.825 31.825C24.0417 32.6083 23.1 33 22 33Z" fill="white"/>
</svg>
